<?xml version="1.0" standalone="no"?>
<!DOCTYPE svg PUBLIC "-//W3C//DTD SVG 20010904//EN"
 "http://www.w3.org/TR/2001/REC-SVG-20010904/DTD/svg10.dtd">
<svg version="1.0" xmlns="http://www.w3.org/2000/svg"
 width="95.000000pt" height="95.000000pt" viewBox="0 0 95.000000 95.000000"
 preserveAspectRatio="xMidYMid meet">
<metadata>
Created by potrace 1.14, written by Peter Selinger 2001-2017
</metadata>
<g transform="translate(0.000000,95.000000) scale(0.100000,-0.100000)"
fill="#000000" stroke="none">
<path d="M396 943 c-4 -5 -11 -8 -14 -8 -17 -2 -122 -57 -122 -65 0 -5 -9 -11
-20 -15 -11 -3 -19 -9 -17 -13 1 -4 -4 -14 -11 -22 -41 -48 -52 -64 -52 -77 0
-7 -5 -13 -11 -13 -5 0 -7 -4 -4 -10 3 -5 2 -10 -3 -10 -12 0 -14 -15 -14
-112 0 -93 10 -151 24 -142 5 3 8 0 7 -7 -5 -24 42 -105 85 -149 11 -11 17
-20 13 -20 -4 0 9 -16 29 -35 19 -19 33 -35 29 -35 -4 0 12 -18 35 -40 23 -22
38 -40 34 -40 -5 0 2 -7 14 -16 12 -8 22 -18 22 -23 0 -6 -40 -12 -90 -14 -8
0 -18 -5 -22 -11 -5 -7 -8 -7 -8 2 0 8 -5 10 -12 5 -7 -4 -20 -8 -28 -8 -26
-1 -60 -16 -60 -26 0 -11 14 -17 47 -22 12 -2 25 -6 29 -10 4 -3 15 -2 25 3
12 7 20 7 24 0 10 -16 318 -13 309 2 -6 10 -4 11 7 1 16 -16 33 -17 23 -2 -4
7 1 7 16 -1 15 -8 20 -8 16 -1 -5 7 2 11 16 11 29 0 49 13 40 25 -8 12 -30 18
-54 17 -10 0 -20 3 -23 8 -3 5 -17 7 -31 4 -14 -3 -23 -1 -21 3 3 4 -19 7 -49
6 -30 0 -54 1 -54 4 0 5 31 40 78 89 13 13 20 24 17 24 -4 0 14 20 39 45 25
24 46 49 46 55 0 5 5 10 10 10 6 0 9 3 8 8 -2 4 6 17 17 30 11 12 18 24 15 25
-3 1 6 17 20 36 13 19 25 42 26 50 4 27 9 46 15 56 4 6 7 43 8 83 2 67 -1 79
-34 139 -44 80 -109 144 -183 179 -66 32 -164 43 -190 22 -12 -10 -14 -10 -8
0 8 13 4 16 -8 5z m113 -88 c10 -5 12 -4 7 3 -4 7 -2 12 3 12 6 0 11 -4 11 -8
0 -5 7 -9 15 -10 8 -1 22 -3 30 -4 8 -1 15 -5 15 -9 0 -4 10 -11 21 -14 21 -7
94 -73 94 -85 0 -3 8 -21 17 -41 23 -48 32 -105 18 -114 -8 -5 -8 -11 0 -20 8
-10 8 -19 0 -34 -6 -12 -8 -21 -5 -21 3 0 0 -10 -7 -22 -7 -13 -11 -26 -10
-30 1 -5 -3 -8 -9 -8 -5 0 -7 -5 -4 -10 3 -6 -1 -13 -9 -16 -9 -3 -16 -13 -16
-21 0 -8 -4 -11 -10 -8 -5 3 -10 -1 -10 -10 0 -9 -4 -14 -9 -10 -6 3 -13 0
-18 -7 -12 -20 -53 -39 -65 -32 -7 5 -8 2 -3 -6 6 -10 3 -12 -13 -8 -13 4 -22
1 -22 -5 0 -6 -3 -7 -6 -4 -4 3 -16 2 -27 -4 -15 -9 -18 -8 -11 3 6 10 5 11
-8 1 -8 -7 -18 -9 -22 -5 -4 4 -11 7 -14 8 -40 3 -92 18 -92 25 0 6 -4 8 -9 5
-5 -3 -30 14 -56 39 -25 25 -43 45 -39 45 4 0 -1 8 -10 19 -9 10 -18 28 -19
40 -1 11 -5 21 -10 21 -4 0 -6 3 -4 8 3 4 1 16 -3 27 -4 11 -4 30 1 43 5 14 5
22 -2 22 -6 0 -6 7 1 20 6 11 8 20 5 20 -4 0 -3 6 2 13 4 6 8 18 10 26 1 8 11
27 22 42 12 16 21 33 21 39 0 5 4 10 9 10 4 0 19 11 32 24 13 13 43 30 67 38
23 8 40 17 37 19 -8 9 90 3 104 -6z"/>
</g>
</svg>
